<?xml version="1.0" standalone="no"?>
<!DOCTYPE svg PUBLIC "-//W3C//DTD SVG 20010904//EN"
 "http://www.w3.org/TR/2001/REC-SVG-20010904/DTD/svg10.dtd">
<svg version="1.0" xmlns="http://www.w3.org/2000/svg"
 width="225.000000pt" height="225.000000pt" viewBox="0 0 225.000000 225.000000"
 preserveAspectRatio="xMidYMid meet">
<metadata>
Created by potrace 1.16, written by Peter Selinger 2001-2019
</metadata>
<g transform="translate(0.000000,225.000000) scale(0.100000,-0.100000)"
fill="#000000" stroke="none">
<path d="M915 2033 c-125 -27 -325 -127 -284 -141 5 -2 6 -8 3 -14 -3 -5 3
-16 15 -24 12 -8 21 -21 21 -27 0 -7 11 -24 25 -39 14 -15 25 -30 25 -34 0 -4
11 -22 25 -40 14 -18 25 -37 25 -42 0 -5 9 -19 20 -32 19 -22 24 -23 117 -16
133 10 142 11 148 18 5 5 -16 211 -34 326 -6 44 -5 52 8 53 12 0 11 3 -4 9
-21 9 -76 11 -110 3z"/>
<path d="M1320 1988 c-6 -24 -15 -53 -20 -65 -5 -13 -12 -52 -16 -88 -4 -36
-11 -65 -15 -65 -5 0 -9 -18 -9 -40 0 -31 -4 -40 -17 -40 -14 0 -15 -2 -4 -9
11 -7 11 -10 0 -15 -8 -3 18 -3 56 1 39 3 79 6 89 5 33 -2 56 -35 63 -90 l6
-52 23 32 c44 62 126 162 137 166 4 2 7 10 7 17 0 7 18 32 41 56 l40 42 -33
28 c-18 15 -36 28 -40 29 -4 0 -13 6 -20 13 -25 23 -241 117 -270 117 -4 0
-12 -19 -18 -42z"/>
<path d="M352 1648 c-75 -109 -150 -296 -137 -339 5 -14 4 -19 -4 -15 -7 5 -8
1 -4 -10 6 -16 7 -16 15 2 8 18 15 19 61 12 106 -18 117 -20 117 -28 0 -4 35
-11 78 -15 42 -4 80 -12 84 -19 11 -16 9 96 -3 184 -5 41 -10 94 -10 117 -1
32 -5 44 -19 48 -10 3 -32 19 -49 35 -17 17 -34 30 -39 30 -4 0 -15 9 -25 20
-24 28 -32 25 -65 -22z"/>
<path d="M1879 1592 c-19 -9 -35 -20 -37 -24 -2 -4 -9 -8 -16 -8 -7 0 -32 -14
-55 -30 -41 -30 -42 -30 -66 -13 -13 10 -25 24 -25 31 0 18 -17 15 -40 -8 -12
-12 -25 -18 -29 -15 -5 2 -11 -5 -15 -18 -4 -17 7 -35 57 -85 l62 -62 -100
-100 c-89 -89 -110 -119 -65 -90 9 6 17 5 22 -3 5 -8 11 -8 16 -2 4 6 18 11
32 13 14 1 108 13 210 26 130 16 187 20 192 12 12 -18 21 22 14 64 -9 57 -61
206 -94 272 l-28 56 -35 -16z"/>
<path d="M566 1051 c-3 -5 -38 -11 -78 -15 -40 -4 -98 -13 -128 -21 -30 -8
-79 -15 -108 -16 -36 -2 -52 -7 -52 -16 0 -37 43 -182 53 -176 6 3 7 1 3 -6
-10 -15 60 -161 76 -161 9 0 9 3 -2 10 -8 5 -12 10 -10 12 23 14 74 38 83 38
7 0 23 12 36 25 13 14 29 25 37 25 22 0 83 34 84 46 0 7 8 14 18 16 15 4 18 0
16 -21 l-4 -26 9 25 c20 56 9 255 -15 264 -7 3 -16 1 -18 -3z"/>
<path d="M1516 940 c7 -125 15 -160 39 -160 8 0 15 -7 15 -15 0 -8 6 -15 14
-15 8 0 16 -3 18 -7 6 -15 136 -123 147 -123 6 0 11 -7 11 -15 0 -8 7 -15 15
-15 9 0 18 -7 21 -15 4 -8 10 -13 14 -10 4 3 11 -2 14 -11 9 -23 22 -10 73 68
48 77 109 208 120 258 7 38 -6 50 -59 50 -21 0 -38 5 -38 10 0 6 -13 10 -28
10 -34 0 -270 56 -294 70 -10 6 -31 10 -47 10 -16 0 -32 6 -35 13 -3 6 -3 -40
0 -103z"/>
<path d="M1290 577 c-52 -5 -97 -11 -99 -13 -8 -7 -7 -74 1 -74 4 0 8 -21 8
-47 0 -27 3 -92 7 -145 l6 -98 27 0 c15 0 56 9 90 20 34 11 69 20 77 20 8 0
56 20 108 44 81 38 93 47 88 65 -3 12 -9 21 -12 21 -4 0 -17 19 -29 43 -11 23
-29 51 -39 62 -10 11 -27 38 -38 60 -31 62 -23 60 -195 42z"/>
<path d="M627 542 c-9 -10 -17 -22 -17 -26 0 -8 -16 -27 -67 -82 l-22 -24 27
-14 c15 -8 36 -24 47 -36 24 -27 150 -91 234 -120 73 -24 85 -18 88 45 2 22 7
41 13 43 5 2 10 18 10 35 0 18 7 56 15 86 8 30 12 58 9 63 -3 4 0 8 5 8 6 0
11 5 11 10 0 13 -54 12 -175 -4 -84 -11 -104 -11 -127 0 -14 7 -28 19 -30 25
-2 6 -11 3 -21 -9z"/>
</g>
</svg>
